<svg width="30" height="30" viewBox="0 0 30 30" fill="none" xmlns="http://www.w3.org/2000/svg">
<path fill-rule="evenodd" clip-rule="evenodd" d="M13.0975 21.4161C12.8127 21.4161 12.5817 21.6477 12.5817 21.9332C12.5817 22.219 12.8127 22.4506 13.0975 22.4506C13.3824 22.4506 13.6134 22.219 13.6134 21.9332C13.6134 21.6477 13.3824 21.4161 13.0975 21.4161ZM25.0766 22.5389H19.3414V19.0468C19.3414 16.6985 17.436 14.788 15.0936 14.788C12.7515 14.788 10.8459 16.6985 10.8459 19.0468V22.5389H5.11067V11.7986L15.0936 3.15054L25.0766 11.7986V22.5389ZM19.3414 26.9918H25.0766V22.8156H19.3414V26.9918ZM18.2372 26.9918H11.9501V19.0468C11.9501 17.3088 13.3601 15.8949 15.0936 15.8949C16.8272 15.8949 18.2372 17.3088 18.2372 19.0468V26.9918ZM5.11067 26.9918H10.8459V22.8156H5.11067V26.9918ZM29.8088 14.4347L15.0936 1.6875L0.378664 14.4347C0.147894 14.6348 0.122498 14.9842 0.32191 15.2155C0.521322 15.4466 0.869796 15.4719 1.10057 15.2726L4.00651 12.7552V27.0181H2.54614C2.24117 27.0181 1.99406 27.2659 1.99406 27.5716C1.99406 27.8771 2.24117 28.125 2.54614 28.125H27.6414C27.9461 28.125 28.1934 27.8771 28.1934 27.5716C28.1934 27.2659 27.9461 27.0181 27.6414 27.0181H26.1808V12.755L29.0869 15.2726C29.1912 15.3627 29.3197 15.407 29.4476 15.407C29.6024 15.407 29.7565 15.3424 29.8656 15.2155C30.065 14.9842 30.0396 14.6348 29.8088 14.4347Z" fill="#006AC3"/>
<mask id="mask0_318_6342" style="mask-type:alpha" maskUnits="userSpaceOnUse" x="0" y="1" width="30" height="28">
<path fill-rule="evenodd" clip-rule="evenodd" d="M13.0975 21.4161C12.8127 21.4161 12.5817 21.6477 12.5817 21.9332C12.5817 22.219 12.8127 22.4506 13.0975 22.4506C13.3824 22.4506 13.6134 22.219 13.6134 21.9332C13.6134 21.6477 13.3824 21.4161 13.0975 21.4161ZM25.0766 22.5389H19.3414V19.0468C19.3414 16.6985 17.436 14.788 15.0936 14.788C12.7515 14.788 10.8459 16.6985 10.8459 19.0468V22.5389H5.11067V11.7986L15.0936 3.15054L25.0766 11.7986V22.5389ZM19.3414 26.9918H25.0766V22.8156H19.3414V26.9918ZM18.2372 26.9918H11.9501V19.0468C11.9501 17.3088 13.3601 15.8949 15.0936 15.8949C16.8272 15.8949 18.2372 17.3088 18.2372 19.0468V26.9918ZM5.11067 26.9918H10.8459V22.8156H5.11067V26.9918ZM29.8088 14.4347L15.0936 1.6875L0.378664 14.4347C0.147894 14.6348 0.122498 14.9842 0.32191 15.2155C0.521322 15.4466 0.869796 15.4719 1.10057 15.2726L4.00651 12.7552V27.0181H2.54614C2.24117 27.0181 1.99406 27.2659 1.99406 27.5716C1.99406 27.8771 2.24117 28.125 2.54614 28.125H27.6414C27.9461 28.125 28.1934 27.8771 28.1934 27.5716C28.1934 27.2659 27.9461 27.0181 27.6414 27.0181H26.1808V12.755L29.0869 15.2726C29.1912 15.3627 29.3197 15.407 29.4476 15.407C29.6024 15.407 29.7565 15.3424 29.8656 15.2155C30.065 14.9842 30.0396 14.6348 29.8088 14.4347Z" fill="white"/>
</mask>
<g mask="url(#mask0_318_6342)">
<rect width="30" height="30" rx="4" fill="#006AC3"/>
</g>
</svg>
