<svg width="33" height="32" viewBox="0 0 33 32" fill="none" xmlns="http://www.w3.org/2000/svg">
<path d="M27.0472 15V17.4762C27.0472 21.4762 22.3329 25.9048 16.4757 25.9048C10.6186 25.9048 5.9043 21.4286 5.9043 17.4762V15.0952" stroke="black" stroke-miterlimit="10"/>
<path fill-rule="evenodd" clip-rule="evenodd" d="M1.1861 12.0184L16.0432 20.8834C16.2813 21.0389 16.5194 21.0389 16.7575 20.8834L31.6147 12.0184C31.9956 11.811 31.9956 11.2408 31.6147 10.9816L16.7575 2.11664C16.5194 1.96112 16.2813 1.96112 16.0432 2.11664L1.1861 10.9816C0.805153 11.1889 0.805153 11.811 1.1861 12.0184Z" stroke="black" stroke-miterlimit="10"/>
<path d="M16.9004 12L8.90039 16.8103V30" stroke="black" stroke-miterlimit="10" stroke-linecap="round"/>
<path fill-rule="evenodd" clip-rule="evenodd" d="M10.0121 30.3891C10.0121 31.0031 9.51406 31.5001 8.90106 31.5001C8.28706 31.5001 7.78906 31.0031 7.78906 30.3891C7.78906 29.7761 8.28706 29.2791 8.90106 29.2791C9.51406 29.2791 10.0121 29.7761 10.0121 30.3891Z" fill="black"/>
</svg>
