<svg xmlns="http://www.w3.org/2000/svg" viewBox="0 0 80 66.84"><defs><style>.cls-1{fill:#006ac3}</style></defs><g id="Layer_2" data-name="Layer 2"><g id="Basic"><g id="Marketing"><g id="Icons"><g id="Student_80_" data-name="Student (80)"><path class="cls-1" d="M40 45a2 2 0 01-.94-.23l-38-20a2 2 0 010-3.55l38.1-21a2 2 0 011.95 0L79 21.21a2 2 0 010 3.54l-38 20a2 2 0 01-1 .25zM3.55 23L40 42.15 76.46 23 40.11 2.84z"/><path class="cls-1" d="M40 66.19a3.44 3.44 0 01-1.66-.43L19.71 55.49a3.44 3.44 0 01-1.78-3L18 33.52h2.74l-.08 18.94a.7.7 0 00.36.62l18.69 10.28a.7.7 0 00.65 0l18.59-9.3a.7.7 0 00.39-.63v-20h2.74v20a3.42 3.42 0 01-1.9 3.08l-18.59 9.3a3.44 3.44 0 01-1.59.38zM12.17 28.55h1.03v33.13h-1.03z"/><path class="cls-1" d="M12.69 66.84a3.1 3.1 0 113.1-3.1 3.11 3.11 0 01-3.1 3.1zm0-5.18a2.07 2.07 0 102.07 2.07 2.08 2.08 0 00-2.07-2.06z"/></g></g></g></g></g></svg>